<svg width="362" height="102" viewBox="0 0 362 102" fill="none" xmlns="http://www.w3.org/2000/svg">
<path fill-rule="evenodd" clip-rule="evenodd" d="M28.2809 84C25.425 42.2268 44.4146 14.2049 82 10C65.0286 15.3864 52.5754 24.1052 43.9361 35.6351C48.5338 34.7926 50.7506 37.7851 51.3183 43.433V43.4347C56.5896 34.1754 63.6363 28.119 72.2721 24.9301C64.1996 29.93 57.7347 36.8008 52.6028 45.2229C60.1139 44.0352 65.2652 46.6729 66.3237 55.9428C74.2205 44.8108 80.4515 29.7434 80.7323 13.8906C83.1433 45.5152 64.8335 75.5427 32.4805 80.9643C34.2488 78.5379 35.7558 75.8517 36.9759 72.8786C41.4765 76.2426 48.7501 73.7546 56.0864 67.4147C51.3359 67.4094 47.2176 66.5316 43.8407 64.6273C43.5565 65.4874 43.281 66.3573 43.0127 67.236C43.1972 66.3036 43.3896 65.3862 43.5918 64.4847C39.4434 62.0573 36.4435 58.0418 34.8041 52.1438C31.068 61.611 28.9678 72.2843 28.2809 84ZM56.165 67.3469C56.7741 66.8178 57.3833 66.2622 57.9916 65.682L56.165 67.3469ZM58.0657 65.6116L58.0692 65.609C58.8002 56.6181 55.6282 52.5127 47.9503 54.0508C46.8282 56.5186 45.7909 59.0851 44.8339 61.7448C48.3493 64.1439 52.7741 65.4153 58.0657 65.6116ZM44.3334 61.3926C45.1376 58.2557 46.054 55.3221 47.0798 52.5849L47.0772 52.5867C45.7 45.0477 41.9012 44.3046 36.3076 48.5922L36.3032 48.6019C37.7899 54.3414 40.4869 58.5788 44.3334 61.3926ZM48.0624 50.103C48.7466 48.4646 49.4741 46.9027 50.243 45.4166L50.2403 45.4174C49.2842 38.8557 46.5466 36.35 41.4845 39.1374C40.3624 40.8542 39.3163 42.6265 38.3434 44.4543C43.4126 42.395 46.9951 43.5369 48.0615 50.1004L48.0624 50.103ZM60.9578 62.6375C61.6182 61.9112 62.2733 61.1584 62.9221 60.3766C63.1631 49.5404 58.8426 45.9228 51.5222 47.0533C50.6147 48.6398 49.7521 50.2782 48.9311 51.966C56.4281 51.1992 60.4343 54.7604 60.9578 62.6375Z" fill="#15A858"/>
<path d="M355.196 53.2645C354.586 53.2645 354.058 53.0467 353.614 52.6086C353.176 52.1645 352.957 51.6364 352.957 51.0243C352.957 50.3932 353.176 49.8591 353.607 49.4151C354.039 48.9711 354.573 48.7461 355.196 48.7461C355.814 48.7461 356.336 48.9711 356.78 49.4151C357.218 49.8591 357.436 50.3932 357.436 51.0243C357.436 51.6364 357.218 52.1645 356.78 52.6086C356.336 53.0467 355.814 53.2645 355.196 53.2645Z" fill="#15A858"/>
<path d="M348.909 46.7498C347.932 48.874 346.56 50.5033 344.803 51.6364C343.053 52.7755 341.012 53.3427 338.683 53.3427C335.227 53.3427 332.351 52.1065 330.067 49.6271C327.775 47.1488 326.63 43.9814 326.63 40.1248C326.63 36.3654 327.801 33.23 330.151 30.7185C332.493 28.2142 335.401 26.9591 338.87 26.9591C340.988 26.9591 342.821 27.3901 344.373 28.2592C345.923 29.1283 347.211 30.4296 348.228 32.1607L346.721 33.2169C345.942 31.6847 344.977 30.5326 343.826 29.7665C342.673 29.0004 341.347 28.6203 339.836 28.6203C337.307 28.6203 335.305 29.6635 333.825 31.7487C332.351 33.8409 331.611 36.6875 331.611 40.2989C331.611 43.7813 332.312 46.4857 333.722 48.411C335.131 50.3363 337.107 51.2954 339.649 51.2954C341.347 51.2954 342.854 50.8253 344.167 49.8911C345.479 48.951 346.554 47.5798 347.384 45.7705L348.909 46.7498Z" fill="#15A858"/>
<path d="M319.526 53.2645C318.914 53.2645 318.386 53.0467 317.942 52.6086C317.504 52.1645 317.285 51.6364 317.285 51.0243C317.285 50.3932 317.504 49.8591 317.936 49.4151C318.367 48.9711 318.901 48.7461 319.526 48.7461C320.144 48.7461 320.664 48.9711 321.108 49.4151C321.546 49.8591 321.765 50.3932 321.765 51.0243C321.765 51.6364 321.546 52.1645 321.108 52.6086C320.664 53.0467 320.144 53.2645 319.526 53.2645Z" fill="#15A858"/>
<path d="M292.876 52.7246L303.231 26.9982L313.997 52.7246H309.023L306.398 46.0026H297.709L295.11 52.7246H292.876ZM298.366 44.4195H305.702L302.028 35.2192L298.366 44.4195Z" fill="#15A858"/>
<path d="M287.432 53.2645C286.821 53.2645 286.293 53.0467 285.85 52.6086C285.412 52.1645 285.193 51.6364 285.193 51.0243C285.193 50.3932 285.412 49.8591 285.842 49.4151C286.274 48.9711 286.808 48.7461 287.432 48.7461C288.05 48.7461 288.572 48.9711 289.016 49.4151C289.454 49.8591 289.671 50.3932 289.671 51.0243C289.671 51.6364 289.454 52.1645 289.016 52.6086C288.572 53.0467 288.05 53.2645 287.432 53.2645Z" fill="#15A858"/>
<path d="M266.022 47.9338C266.575 48.99 267.283 49.8141 268.146 50.4062C269.001 50.9982 269.928 51.2954 270.926 51.2954C272.27 51.2954 273.364 50.8703 274.208 50.0202C275.051 49.17 275.468 48.083 275.468 46.7498C275.468 44.6184 273.59 42.7843 269.825 41.2391L269.774 41.2189C267.747 40.3889 266.311 39.4487 265.468 38.4056C264.619 37.3636 264.194 36.0433 264.194 34.446C264.194 32.2578 264.922 30.4616 266.382 29.0644C267.837 27.6612 269.722 26.9591 272.038 26.9591C273.77 26.9591 275.288 27.3522 276.589 28.1301C277.889 28.9093 278.853 30.0175 279.484 31.4467L277.824 32.5598C277.412 31.3816 276.788 30.4746 275.958 29.8435C275.128 29.2065 274.143 28.8903 272.998 28.8903C271.774 28.8903 270.778 29.2834 269.999 30.0685C269.22 30.8535 268.827 31.8777 268.827 33.153C268.827 34.1571 269.149 35.0061 269.793 35.7153C270.43 36.4163 271.634 37.1445 273.397 37.8976C276.17 39.0947 278.005 40.2338 278.887 41.329C279.774 42.4231 280.218 43.8263 280.218 45.5325C280.218 47.7988 279.433 49.6661 277.869 51.1344C276.305 52.6086 274.324 53.3427 271.924 53.3427C270.185 53.3427 268.692 53.0076 267.438 52.3445C266.176 51.6814 265.083 50.6513 264.156 49.2541L266.022 47.9338Z" fill="#15A858"/>
<path d="M229.939 52.7246L240.294 26.9982L251.06 52.7246H246.085L243.46 46.0026H234.771L232.172 52.7246H229.939ZM235.428 44.4195H242.764L239.09 35.2192L235.428 44.4195Z" fill="#15A858"/>
<path d="M208.934 52.7246L223.181 29.3924H210.362V27.5002H229.514L215.318 50.8313H229.25V52.7246H208.934Z" fill="#15A858"/>
<path d="M189.087 52.7246V27.5002H197.35C200.477 27.5002 202.845 28.1242 204.448 29.3663C206.05 30.6155 206.848 32.4508 206.848 34.8841C206.848 36.6934 206.282 38.1226 205.143 39.1657C204.004 40.2089 202.383 40.7879 200.284 40.904L206.964 52.7246H201.726L194.956 39.9378C197.607 39.7649 199.48 39.2687 200.574 38.4577C201.668 37.6466 202.214 36.3903 202.214 34.6911C202.214 32.8179 201.675 31.4207 200.593 30.4995C199.512 29.5794 197.878 29.1224 195.689 29.1224H193.759V52.7246H189.087Z" fill="#15A858"/>
<path d="M171.511 53.3427C169.755 53.3427 168.101 53.0265 166.557 52.3895C165.005 51.7525 163.622 50.8182 162.386 49.5892C161.17 48.3719 160.244 46.9558 159.607 45.3466C158.969 43.7363 158.654 42.0111 158.654 40.1568C158.654 38.2836 158.976 36.5454 159.613 34.9362C160.257 33.3259 161.196 31.9168 162.425 30.7126C163.655 29.5025 165.05 28.5753 166.608 27.9312C168.172 27.2811 169.8 26.9591 171.511 26.9591C172.883 26.9591 174.215 27.171 175.508 27.6032C176.802 28.0283 178.017 28.6523 179.15 29.4693C180.843 30.6996 182.143 32.2377 183.05 34.0789C183.958 35.9214 184.409 37.9485 184.409 40.1568C184.409 42.0182 184.087 43.7493 183.437 45.3525C182.793 46.9558 181.853 48.3719 180.618 49.5892C179.376 50.8182 177.979 51.7525 176.435 52.3895C174.884 53.0265 173.25 53.3427 171.511 53.3427ZM179.389 40.1568C179.389 36.7123 178.655 33.925 177.182 31.7877C175.714 29.6505 173.822 28.5813 171.511 28.5813C169.214 28.5813 167.323 29.6505 165.849 31.7877C164.375 33.925 163.635 36.7123 163.635 40.1568C163.635 43.5954 164.375 46.3768 165.849 48.514C167.323 50.6513 169.214 51.7205 171.511 51.7205C173.81 51.7205 175.701 50.6513 177.175 48.5199C178.648 46.3886 179.389 43.6013 179.389 40.1568Z" fill="#15A858"/>
<path d="M159.098 50.8313V52.7246H143.498V27.5002H148.171V50.8313H159.098Z" fill="#15A858"/>
<path d="M136.896 52.7246H132.263V27.5002H136.896V52.7246Z" fill="#15A858"/>
<path d="M113.169 47.9338C113.722 48.99 114.43 49.8141 115.293 50.4062C116.148 50.9982 117.075 51.2954 118.073 51.2954C119.417 51.2954 120.511 50.8703 121.355 50.0202C122.198 49.17 122.615 48.083 122.615 46.7498C122.615 44.6184 120.737 42.7843 116.972 41.2391L116.921 41.2189C114.894 40.3889 113.458 39.4487 112.615 38.4056C111.766 37.3636 111.341 36.0433 111.341 34.446C111.341 32.2578 112.069 30.4616 113.529 29.0644C114.984 27.6612 116.869 26.9591 119.185 26.9591C120.917 26.9591 122.435 27.3522 123.736 28.1301C125.036 28.9093 126 30.0175 126.631 31.4467L124.971 32.5598C124.559 31.3816 123.935 30.4746 123.105 29.8435C122.274 29.2065 121.29 28.8903 120.145 28.8903C118.921 28.8903 117.925 29.2834 117.146 30.0685C116.367 30.8535 115.974 31.8777 115.974 33.153C115.974 34.1571 116.296 35.0061 116.94 35.7153C117.577 36.4163 118.781 37.1445 120.544 37.8976C123.317 39.0947 125.152 40.2338 126.034 41.329C126.921 42.4231 127.365 43.8263 127.365 45.5325C127.365 47.7988 126.58 49.6661 125.016 51.1344C123.452 52.6086 121.471 53.3427 119.071 53.3427C117.333 53.3427 115.839 53.0076 114.585 52.3445C113.323 51.6814 112.229 50.6513 111.303 49.2541L113.169 47.9338Z" fill="#15A858"/>
<path d="M88.4373 52.7246L98.7924 26.9982L109.558 52.7246H104.584L101.958 46.0026H93.271L90.6707 52.7246H88.4373ZM93.9267 44.4195H101.264L97.5887 35.2192L93.9267 44.4195Z" fill="#15A858"/>
<path d="M332.52 69.4225C332.565 68.6753 332.588 67.0519 332.588 64.5512V60.1819C332.588 58.613 332.565 57.5249 332.52 56.9127C332.81 56.9127 333.033 56.9127 333.185 56.9127C333.353 56.9127 333.593 56.9127 333.904 56.9127C333.846 57.9345 333.817 59.6467 333.817 62.0504C333.817 65.7542 333.846 68.2088 333.904 69.4225C333.659 69.3881 333.42 69.3704 333.185 69.3704C332.964 69.3704 332.742 69.3881 332.52 69.4225ZM337.208 64.8081H341.633V64.5228C341.633 63.6939 341.446 63.0474 341.069 62.5832C340.694 62.1191 340.182 61.8858 339.529 61.8858C338.891 61.8858 338.353 62.1416 337.915 62.6578C337.479 63.2072 337.243 63.9224 337.208 64.8081ZM342.547 68.622C341.679 69.2567 340.733 69.5764 339.712 69.5764C338.543 69.5764 337.595 69.1975 336.867 68.4397C336.138 67.6819 335.774 66.7015 335.774 65.4996C335.774 64.2528 336.124 63.2522 336.825 62.5004C337.524 61.7485 338.452 61.3731 339.611 61.3731C340.68 61.3731 341.505 61.6893 342.088 62.318C342.672 62.9479 342.963 63.8478 342.963 65.0213C342.963 65.0532 342.963 65.116 342.963 65.2036C342.955 65.2841 342.949 65.3433 342.949 65.3895H337.208V65.4404C337.208 67.7648 338.142 68.9263 340.01 68.9263C340.967 68.9263 341.824 68.5474 342.581 67.7873C342.558 68.0774 342.547 68.2881 342.547 68.4219V68.622ZM344.409 67.6878C344.956 68.5368 345.633 68.9607 346.441 68.9607C346.943 68.9607 347.336 68.8245 347.626 68.551C347.914 68.2775 348.059 67.9068 348.059 67.4403C348.059 66.7701 347.62 66.3143 346.743 66.0692L345.977 65.8537C345.345 65.6737 344.887 65.4179 344.606 65.084C344.324 64.7477 344.181 64.2871 344.181 63.6975C344.181 63.0273 344.415 62.4755 344.881 62.0421C345.349 61.6064 345.963 61.3897 346.733 61.3897C347.533 61.3897 348.226 61.5756 348.816 61.9427C348.648 62.2872 348.532 62.6401 348.467 62.9965C347.835 62.2564 347.191 61.8858 346.536 61.8858C346.115 61.8858 345.773 62.0172 345.511 62.2789C345.252 62.5406 345.121 62.8769 345.121 63.2901C345.121 63.9816 345.542 64.4493 346.388 64.6944L347.519 65.0272C348.586 65.341 349.118 65.9815 349.118 66.9501C349.118 67.7103 348.845 68.3367 348.301 68.8328C347.754 69.3277 347.043 69.5764 346.163 69.5764C345.295 69.5764 344.577 69.3763 344.01 68.9749C344.178 68.551 344.31 68.12 344.409 67.6878ZM104.888 68.7073C104.045 69.3313 102.798 69.6439 101.152 69.6439C99.3048 69.6439 97.875 69.1288 96.856 68.101C95.8393 67.0697 95.3303 65.6145 95.3303 63.7318C95.3303 61.9367 95.8878 60.5016 97.0074 59.4217C98.1224 58.3419 99.6291 57.8007 101.519 57.8007C102.844 57.8007 104.039 58.0683 105.107 58.6047C104.928 59.1743 104.839 59.7071 104.839 60.2103C104.073 59.0144 102.949 58.4165 101.471 58.4165C100.085 58.4165 98.9994 58.8806 98.223 59.8089C97.4454 60.7373 97.0548 62.048 97.0548 63.7401C97.0548 65.3859 97.443 66.6742 98.2135 67.6025C98.9852 68.5309 100.034 68.995 101.355 68.995C102.633 68.995 103.845 68.5309 104.989 67.6025L104.888 68.7073ZM110.143 69.5764C108.988 69.5764 108.04 69.1975 107.299 68.4397C106.559 67.6819 106.188 66.6967 106.188 65.483C106.188 64.2812 106.565 63.2984 107.316 62.5347C108.064 61.7721 109.008 61.3897 110.143 61.3897C111.311 61.3897 112.261 61.7686 112.996 62.5264C113.73 63.2842 114.098 64.2694 114.098 65.483C114.098 66.7074 113.724 67.6961 112.979 68.448C112.235 69.1999 111.287 69.5764 110.143 69.5764ZM110.143 69.0803C111.834 69.0803 112.68 67.9151 112.68 65.5825C112.68 63.1184 111.828 61.8858 110.126 61.8858C108.447 61.8858 107.606 63.0794 107.606 65.4665C107.606 67.8761 108.453 69.0803 110.143 69.0803ZM115.946 69.4225C115.991 68.7985 116.015 67.8299 116.015 66.5167V65.3327C116.015 63.598 115.991 62.3334 115.946 61.5436C116.157 61.5898 116.384 61.6123 116.629 61.6123C116.886 61.6123 117.101 61.5898 117.279 61.5436C117.279 61.945 117.279 62.228 117.279 62.395C117.279 62.4613 117.279 62.5631 117.279 62.6969C117.275 62.8283 117.275 62.9314 117.279 62.9965C117.907 61.9142 118.772 61.3731 119.874 61.3731C121.64 61.3731 122.522 62.3701 122.522 64.3641C122.522 64.64 122.522 65.0497 122.522 65.5884C122.522 66.1295 122.522 66.5286 122.522 66.7843C122.522 67.6073 122.536 68.4882 122.568 69.4225C122.311 69.3656 122.084 69.3396 121.885 69.3396C121.685 69.3396 121.458 69.3656 121.201 69.4225C121.272 68.2538 121.31 66.679 121.31 64.6968C121.31 63.0509 120.674 62.228 119.402 62.228C118.744 62.228 118.227 62.4672 117.848 62.9456C117.469 63.4239 117.279 64.2919 117.279 65.5482V66.3001C117.279 67.8133 117.295 68.8553 117.329 69.4225C117.073 69.3656 116.839 69.3396 116.629 69.3396C116.43 69.3396 116.202 69.3656 115.946 69.4225ZM124.632 67.6878C125.179 68.5368 125.856 68.9607 126.664 68.9607C127.166 68.9607 127.559 68.8245 127.849 68.551C128.137 68.2775 128.282 67.9068 128.282 67.4403C128.282 66.7701 127.843 66.3143 126.966 66.0692L126.2 65.8537C125.568 65.6737 125.11 65.4179 124.829 65.084C124.547 64.7477 124.404 64.2871 124.404 63.6975C124.404 63.0273 124.638 62.4755 125.104 62.0421C125.572 61.6064 126.186 61.3897 126.955 61.3897C127.756 61.3897 128.45 61.5756 129.04 61.9427C128.872 62.2872 128.755 62.6401 128.689 62.9965C128.057 62.2564 127.414 61.8858 126.759 61.8858C126.338 61.8858 125.996 62.0172 125.734 62.2789C125.475 62.5406 125.343 62.8769 125.343 63.2901C125.343 63.9816 125.765 64.4493 126.611 64.6944L127.741 65.0272C128.809 65.341 129.342 65.9815 129.342 66.9501C129.342 67.7103 129.068 68.3367 128.524 68.8328C127.977 69.3277 127.266 69.5764 126.386 69.5764C125.517 69.5764 124.8 69.3763 124.233 68.9749C124.401 68.551 124.533 68.12 124.632 67.6878ZM136.373 69.439V69.1407C136.373 68.9725 136.361 68.622 136.339 68.0868C135.781 69.1028 134.887 69.6107 133.657 69.6107C131.904 69.6107 131.027 68.6907 131.027 66.853C131.027 66.7642 131.041 66.2894 131.07 65.4262C131.094 64.563 131.109 63.7424 131.109 62.9621C131.109 62.6176 131.098 62.1451 131.078 61.5436C131.266 61.5898 131.487 61.6123 131.744 61.6123C132 61.6123 132.239 61.5898 132.461 61.5436C132.302 63.1244 132.222 64.6945 132.222 66.2527C132.222 67.9672 132.869 68.8245 134.163 68.8245C135.083 68.8245 135.721 68.4219 136.075 67.6215C136.274 67.1775 136.373 65.8359 136.373 63.598C136.373 62.897 136.347 62.2103 136.3 61.5436C136.51 61.5898 136.744 61.6123 136.999 61.6123C137.244 61.6123 137.461 61.5898 137.649 61.5436C137.595 62.3926 137.569 63.9532 137.569 66.2266C137.569 67.522 137.589 68.5901 137.631 69.439C137.416 69.4047 137.238 69.3881 137.108 69.3881C136.869 69.3881 136.624 69.4047 136.373 69.439ZM140.169 69.4225C140.214 68.6753 140.236 67.0519 140.236 64.5512V60.1819C140.236 58.613 140.214 57.5249 140.169 56.9127C140.459 56.9127 140.681 56.9127 140.834 56.9127C141.002 56.9127 141.242 56.9127 141.553 56.9127C141.496 57.9345 141.466 59.6467 141.466 62.0504C141.466 65.7542 141.496 68.2088 141.553 69.4225C141.308 69.3881 141.068 69.3704 140.834 69.3704C140.613 69.3704 140.39 69.3881 140.169 69.4225ZM142.995 62.2446C143.018 62.0457 143.03 61.9 143.03 61.8112C143.021 61.7769 143.021 61.7319 143.03 61.6774C143.018 61.6087 143.013 61.5661 143.013 61.5436C143.36 61.578 143.708 61.5957 144.055 61.5957V61.0428C144.055 60.6863 144.055 60.2163 144.055 59.6384C144.575 59.5473 145.02 59.4099 145.387 59.2193C145.351 59.9345 145.331 60.3737 145.331 60.5407V61.6466C145.942 61.6466 146.666 61.6123 147.5 61.5436C147.466 61.7153 147.451 61.9024 147.451 62.1072V62.2446C146.85 62.202 146.338 62.1795 145.914 62.1795C145.638 62.1795 145.438 62.1842 145.316 62.196L145.282 63.0308C145.282 63.3553 145.27 63.9449 145.248 64.8022C145.225 65.6595 145.213 66.3604 145.213 66.9075C145.213 67.6535 145.319 68.1922 145.532 68.519C145.742 68.847 146.105 69.0116 146.617 69.0116C146.905 69.0116 147.295 68.892 147.784 68.6528L147.901 69.0234C147.332 69.4023 146.728 69.593 146.082 69.593C145.313 69.593 144.77 69.4106 144.448 69.0495C144.123 68.6872 143.963 68.1058 143.963 67.3065C143.963 67.1384 143.978 66.5511 144.01 65.5434C144.04 64.537 144.055 63.6086 144.055 62.7632V62.196H143.87C143.591 62.196 143.297 62.2138 142.995 62.2446ZM152.18 69.5764C151.025 69.5764 150.077 69.1975 149.336 68.4397C148.596 67.6819 148.226 66.6967 148.226 65.483C148.226 64.2812 148.602 63.2984 149.353 62.5347C150.102 61.7721 151.044 61.3897 152.18 61.3897C153.348 61.3897 154.298 61.7686 155.033 62.5264C155.767 63.2842 156.134 64.2694 156.134 65.483C156.134 66.7074 155.761 67.6961 155.016 68.448C154.272 69.1999 153.324 69.5764 152.18 69.5764ZM152.18 69.0803C153.871 69.0803 154.717 67.9151 154.717 65.5825C154.717 63.1184 153.865 61.8858 152.163 61.8858C150.484 61.8858 149.643 63.0794 149.643 65.4665C149.643 67.8761 150.489 69.0803 152.18 69.0803ZM157.965 69.4225C158.022 68.1058 158.05 66.2894 158.05 63.971C158.05 62.9539 158.022 62.1451 157.965 61.5436C158.188 61.5898 158.427 61.6123 158.682 61.6123C158.939 61.6123 159.172 61.5898 159.383 61.5436C159.318 62.0788 159.284 62.6922 159.284 63.3813C159.885 62.1108 160.579 61.4749 161.368 61.4749C161.49 61.4749 161.704 61.5045 162.002 61.5578C161.949 61.8456 161.92 62.2647 161.92 62.8141L161.786 62.897C161.51 62.7573 161.245 62.6886 160.989 62.6886C160.371 62.6886 159.924 62.9621 159.654 63.5068C159.383 64.0503 159.247 64.8993 159.247 66.055C159.247 67.4652 159.269 68.5877 159.318 69.4225C159.104 69.3763 158.865 69.3562 158.601 69.3562C158.398 69.3562 158.188 69.3763 157.965 69.4225ZM163.591 69.4225C163.649 67.8986 163.674 66.5167 163.674 65.2841C163.674 64.1474 163.649 62.9029 163.591 61.5436C163.801 61.5898 164.03 61.6123 164.275 61.6123C164.542 61.6123 164.77 61.5898 164.958 61.5436C164.903 62.9136 164.875 64.1581 164.875 65.2841C164.875 66.5167 164.903 67.8986 164.958 69.4225C164.713 69.3656 164.486 69.3396 164.275 69.3396C164.075 69.3396 163.848 69.3656 163.591 69.4225ZM162.839 60.4839L165.194 58.0459C165.507 57.7238 165.77 57.5616 165.98 57.5616C166.382 57.5616 166.58 57.7558 166.58 58.1453C166.58 58.3798 166.412 58.6012 166.08 58.8155L163.392 60.4839H162.839ZM171.709 68.4539C170.996 69.2034 170.171 69.5764 169.226 69.5764C167.691 69.5764 166.925 68.892 166.925 67.5256C166.925 66.3569 167.571 65.637 168.861 65.3575C169.473 65.2356 170.089 65.1124 170.712 64.9905C171.235 64.8792 171.586 64.7454 171.762 64.5914V64.2409C171.762 63.495 171.62 62.9456 171.338 62.5892C171.053 62.2328 170.579 62.0563 169.912 62.0563C169.001 62.0563 168.284 62.4471 167.759 63.2297H167.626L167.66 62.3441C168.403 61.72 169.297 61.4074 170.342 61.4074C171.272 61.4074 171.944 61.6324 172.357 62.0824C172.767 62.5323 172.973 63.2416 172.973 64.2066V64.4067L172.913 67.7245C172.913 68.101 172.941 68.3568 172.998 68.4906C173.097 68.7132 173.314 68.8245 173.648 68.8245C173.769 68.8245 173.867 68.8245 173.932 68.8245L173.998 69.1572C173.397 69.3337 172.941 69.4225 172.629 69.4225C172.116 69.4225 171.808 69.1004 171.709 68.4539ZM171.731 65.2841C170.415 65.5055 169.544 65.7281 169.109 65.9531C168.565 66.229 168.292 66.6825 168.292 67.3065C168.292 68.3627 168.787 68.892 169.778 68.892C170.401 68.892 170.957 68.6481 171.446 68.1579C171.634 67.9672 171.731 67.7281 171.731 67.4403V65.2841ZM180.193 73.9847C180.748 73.0505 181.36 71.8096 182.026 70.262L182.411 69.3763L181.71 67.5398C181.378 66.6707 180.509 64.6708 179.107 61.5436C179.342 61.5898 179.615 61.6123 179.925 61.6123C180.224 61.6123 180.491 61.5898 180.725 61.5436C181.013 62.5548 181.607 64.1699 182.508 66.3829L183.091 67.818L183.691 66.4339C184.538 64.4742 185.158 62.8461 185.559 61.5436C185.725 61.5898 185.915 61.6123 186.126 61.6123C186.325 61.6123 186.507 61.5898 186.675 61.5436C186.343 62.202 185.816 63.347 185.093 64.9845L182.857 70.0429C182.049 71.8806 181.542 73.1938 181.343 73.9847C181.163 73.948 180.975 73.9279 180.776 73.9279C180.586 73.9279 180.392 73.948 180.193 73.9847ZM192.765 69.4225C192.833 67.5848 192.868 65.6879 192.868 63.7318C192.868 61.6952 192.833 59.7924 192.765 58.0234C193.087 58.0577 193.36 58.0743 193.583 58.0743C193.85 58.0743 194.294 58.0553 194.909 58.0151C195.527 57.9748 196.014 57.9547 196.372 57.9547C197.574 57.9547 198.497 58.2116 199.143 58.7208C199.789 59.2335 200.111 59.9522 200.111 60.8746C200.111 61.9426 199.715 62.7691 198.92 63.3529C198.129 63.9366 196.979 64.2267 195.473 64.2267C194.98 64.2267 194.557 64.2267 194.2 64.2267V66.6079C194.2 67.4853 194.235 68.4219 194.3 69.4225C193.99 69.3656 193.757 69.3396 193.599 69.3396C193.354 69.3396 193.076 69.3656 192.765 69.4225ZM194.2 63.5944C194.533 63.6169 194.784 63.6288 194.952 63.6288C197.344 63.6288 198.539 62.7597 198.539 61.025C198.539 60.1452 198.283 59.5212 197.77 59.1541C197.261 58.7871 196.441 58.6047 195.319 58.6047C194.995 58.6047 194.65 58.6213 194.283 58.6557C194.229 59.8575 194.2 61.0025 194.2 62.093V63.5944ZM201.702 69.4225C201.759 68.1058 201.787 66.2894 201.787 63.971C201.787 62.9539 201.759 62.1451 201.702 61.5436C201.924 61.5898 202.163 61.6123 202.419 61.6123C202.676 61.6123 202.909 61.5898 203.12 61.5436C203.055 62.0788 203.02 62.6922 203.02 63.3813C203.622 62.1108 204.316 61.4749 205.105 61.4749C205.227 61.4749 205.441 61.5045 205.739 61.5578C205.686 61.8456 205.657 62.2647 205.657 62.8141L205.522 62.897C205.247 62.7573 204.982 62.6886 204.726 62.6886C204.108 62.6886 203.661 62.9621 203.391 63.5068C203.12 64.0503 202.984 64.8993 202.984 66.055C202.984 67.4652 203.006 68.5877 203.055 69.4225C202.842 69.3763 202.601 69.3562 202.337 69.3562C202.135 69.3562 201.924 69.3763 201.702 69.4225ZM210.497 69.5764C209.341 69.5764 208.393 69.1975 207.653 68.4397C206.912 67.6819 206.543 66.6967 206.543 65.483C206.543 64.2812 206.918 63.2984 207.669 62.5347C208.419 61.7721 209.361 61.3897 210.497 61.3897C211.664 61.3897 212.616 61.7686 213.349 62.5264C214.084 63.2842 214.451 64.2694 214.451 65.483C214.451 66.7074 214.079 67.6961 213.333 68.448C212.59 69.1999 211.642 69.5764 210.497 69.5764ZM210.497 69.0803C212.188 69.0803 213.033 67.9151 213.033 65.5825C213.033 63.1184 212.182 61.8858 210.479 61.8858C208.8 61.8858 207.961 63.0794 207.961 65.4665C207.961 67.8761 208.806 69.0803 210.497 69.0803ZM216.307 73.9847C216.862 73.0505 217.475 71.8096 218.142 70.262L218.525 69.3763L217.826 67.5398C217.492 66.6707 216.623 64.6708 215.223 61.5436C215.456 61.5898 215.73 61.6123 216.04 61.6123C216.339 61.6123 216.607 61.5898 216.84 61.5436C217.127 62.5548 217.723 64.1699 218.622 66.3829L219.206 67.818L219.807 66.4339C220.652 64.4742 221.274 62.8461 221.675 61.5436C221.839 61.5898 222.03 61.6123 222.24 61.6123C222.441 61.6123 222.623 61.5898 222.791 61.5436C222.457 62.202 221.93 63.347 221.207 64.9845L218.973 70.0429C218.164 71.8806 217.658 73.1938 217.458 73.9847C217.279 73.948 217.091 73.9279 216.892 73.9279C216.7 73.9279 216.507 73.948 216.307 73.9847ZM230.23 68.622C229.362 69.2567 228.416 69.5764 227.394 69.5764C226.227 69.5764 225.279 69.1975 224.55 68.4397C223.822 67.6819 223.457 66.7015 223.457 65.4996C223.457 64.2528 223.806 63.2522 224.507 62.5004C225.208 61.7485 226.136 61.3731 227.294 61.3731C228.362 61.3731 229.188 61.6893 229.772 62.318C230.355 62.9479 230.645 63.8478 230.645 65.0213C230.645 65.0532 230.645 65.116 230.645 65.2036C230.637 65.2841 230.631 65.3433 230.631 65.3895H224.892V65.4404C224.892 67.7648 225.826 68.9263 227.693 68.9263C228.65 68.9263 229.506 68.5474 230.264 67.7873C230.241 68.0774 230.23 68.2881 230.23 68.4219V68.622ZM224.892 64.8081H229.316V64.5228C229.316 63.6939 229.128 63.0474 228.753 62.5832C228.376 62.1191 227.864 61.8858 227.212 61.8858C226.575 61.8858 226.036 62.1416 225.597 62.6578C225.163 63.2072 224.926 63.9224 224.892 64.8081ZM238.62 68.7558C237.909 69.3135 236.957 69.593 235.768 69.593C234.601 69.593 233.658 69.22 232.94 68.474C232.223 67.7281 231.864 66.7358 231.864 65.4996C231.864 64.2528 232.243 63.2558 232.997 62.5098C233.754 61.7627 234.757 61.3897 236.001 61.3897C236.957 61.3897 237.863 61.6123 238.719 62.0599C238.543 62.4719 238.393 62.9503 238.27 63.4973C237.806 62.4471 237.052 61.9202 236.009 61.9202C235.133 61.9202 234.453 62.2304 233.963 62.8485C233.475 63.4666 233.231 64.3463 233.231 65.483C233.231 66.5771 233.495 67.4368 234.022 68.0667C234.549 68.6954 235.249 69.0116 236.126 69.0116C237.012 69.0116 237.848 68.6102 238.638 67.805C238.614 68.1152 238.603 68.3225 238.603 68.4219C238.603 68.5794 238.609 68.6907 238.62 68.7558ZM239.195 62.2446C239.218 62.0457 239.23 61.9 239.23 61.8112C239.221 61.7769 239.221 61.7319 239.23 61.6774C239.218 61.6087 239.213 61.5661 239.213 61.5436C239.56 61.578 239.907 61.5957 240.255 61.5957V61.0428C240.255 60.6863 240.255 60.2163 240.255 59.6384C240.775 59.5473 241.219 59.4099 241.587 59.2193C241.549 59.9345 241.53 60.3737 241.53 60.5407V61.6466C242.142 61.6466 242.865 61.6123 243.7 61.5436C243.666 61.7153 243.651 61.9024 243.651 62.1072V62.2446C243.05 62.202 242.538 62.1795 242.114 62.1795C241.837 62.1795 241.638 62.1842 241.516 62.196L241.482 63.0308C241.482 63.3553 241.47 63.9449 241.448 64.8022C241.425 65.6595 241.413 66.3604 241.413 66.9075C241.413 67.6535 241.519 68.1922 241.732 68.519C241.942 68.847 242.304 69.0116 242.817 69.0116C243.105 69.0116 243.494 68.892 243.984 68.6528L244.101 69.0234C243.532 69.4023 242.928 69.593 242.282 69.593C241.513 69.593 240.969 69.4106 240.647 69.0495C240.323 68.6872 240.163 68.1058 240.163 67.3065C240.163 67.1384 240.178 66.5511 240.208 65.5434C240.24 64.537 240.255 63.6086 240.255 62.7632V62.196H240.07C239.791 62.196 239.497 62.2138 239.195 62.2446ZM248.38 69.5764C247.225 69.5764 246.277 69.1975 245.536 68.4397C244.796 67.6819 244.425 66.6967 244.425 65.483C244.425 64.2812 244.802 63.2984 245.553 62.5347C246.301 61.7721 247.244 61.3897 248.38 61.3897C249.548 61.3897 250.498 61.7686 251.233 62.5264C251.967 63.2842 252.334 64.2694 252.334 65.483C252.334 66.7074 251.961 67.6961 251.216 68.448C250.472 69.1999 249.524 69.5764 248.38 69.5764ZM248.38 69.0803C250.071 69.0803 250.916 67.9151 250.916 65.5825C250.916 63.1184 250.065 61.8858 248.363 61.8858C246.684 61.8858 245.843 63.0794 245.843 65.4665C245.843 67.8761 246.688 69.0803 248.38 69.0803ZM253.744 67.6878C254.291 68.5368 254.969 68.9607 255.777 68.9607C256.278 68.9607 256.671 68.8245 256.961 68.551C257.248 68.2775 257.394 67.9068 257.394 67.4403C257.394 66.7701 256.956 66.3143 256.079 66.0692L255.313 65.8537C254.681 65.6737 254.222 65.4179 253.94 65.084C253.659 64.7477 253.516 64.2871 253.516 63.6975C253.516 63.0273 253.75 62.4755 254.216 62.0421C254.684 61.6064 255.299 61.3897 256.067 61.3897C256.867 61.3897 257.562 61.5756 258.151 61.9427C257.983 62.2872 257.866 62.6401 257.801 62.9965C257.169 62.2564 256.525 61.8858 255.871 61.8858C255.449 61.8858 255.107 62.0172 254.846 62.2789C254.586 62.5406 254.455 62.8769 254.455 63.2901C254.455 63.9816 254.878 64.4493 255.723 64.6944L256.853 65.0272C257.921 65.341 258.453 65.9815 258.453 66.9501C258.453 67.7103 258.18 68.3367 257.635 68.8328C257.09 69.3277 256.377 69.5764 255.498 69.5764C254.629 69.5764 253.912 69.3763 253.345 68.9749C253.513 68.551 253.644 68.12 253.744 67.6878ZM263.392 69.4225C265.363 65.1065 267.083 61.2334 268.551 57.8007H268.867C270.427 61.6975 272.042 65.5718 273.711 69.4225C273.409 69.3656 273.138 69.3396 272.893 69.3396C272.637 69.3396 272.352 69.3656 272.042 69.4225C271.629 68.1638 271.157 66.898 270.622 65.6287L270.336 64.962C269.881 64.9396 269.198 64.9277 268.284 64.9277C267.362 64.9277 266.67 64.9396 266.214 64.962C265.691 66.152 265.118 67.6392 264.494 69.4225C264.307 69.3656 264.121 69.3396 263.945 69.3396C263.823 69.3396 263.637 69.3656 263.392 69.4225ZM266.496 64.2267C266.562 64.2267 266.735 64.2267 267.014 64.2267C267.29 64.2267 267.541 64.2267 267.763 64.2267C267.931 64.2267 268.264 64.2267 268.765 64.2267C269.266 64.2267 269.676 64.2267 269.998 64.2267L269.716 63.4926C269.571 63.1161 269.092 61.9829 268.28 60.0943L266.496 64.2267ZM275.068 69.4225C275.114 68.9784 275.137 68.1153 275.137 66.8364V64.1131C275.137 62.8343 275.114 61.977 275.068 61.5436C275.256 61.5898 275.473 61.6123 275.718 61.6123C275.951 61.6123 276.162 61.5898 276.35 61.5436C276.35 61.8538 276.35 62.3239 276.35 62.9479C277.147 61.8965 278.03 61.3731 278.994 61.3731C279.527 61.3731 279.994 61.5235 280.401 61.8254C280.805 62.125 281.078 62.5323 281.224 63.0474C281.879 61.9308 282.747 61.3731 283.835 61.3731C284.621 61.3731 285.241 61.6147 285.688 62.1025C286.138 62.5868 286.363 63.2759 286.363 64.1675C286.363 64.235 286.349 64.5997 286.317 65.264C286.289 65.9271 286.274 66.5535 286.274 67.1467C286.274 67.625 286.303 68.3852 286.363 69.4225C286.106 69.3656 285.873 69.3396 285.662 69.3396C285.46 69.3396 285.233 69.3656 284.976 69.4225C285.079 67.625 285.13 66.081 285.13 64.788C285.13 63.9047 284.982 63.2617 284.686 62.8544C284.392 62.4471 283.906 62.2446 283.225 62.2446C282.445 62.2446 281.915 62.601 281.637 63.315C281.403 63.9165 281.287 64.9822 281.287 66.5108C281.287 67.5256 281.303 68.4965 281.34 69.4225C281.107 69.3881 280.88 69.3704 280.657 69.3704C280.436 69.3704 280.213 69.3881 279.991 69.4225C280.09 67.8666 280.142 66.3806 280.142 64.962C280.142 63.9994 280.014 63.3067 279.758 62.8828C279.501 62.4577 279.063 62.2446 278.439 62.2446C277.793 62.2446 277.292 62.4672 276.934 62.9136C276.677 63.238 276.512 63.7081 276.432 64.3238C276.378 64.7371 276.35 65.4629 276.35 66.5025C276.35 67.4995 276.378 68.4705 276.435 69.4225C276.202 69.3881 275.974 69.3704 275.751 69.3704C275.53 69.3704 275.301 69.3881 275.068 69.4225ZM288.763 69.4225C288.797 68.5995 288.814 67.2094 288.814 65.2522V60.5158C288.814 58.7693 288.797 57.5675 288.763 56.9127C288.974 56.9529 289.213 56.9719 289.481 56.9719C289.736 56.9719 289.969 56.9529 290.18 56.9127C290.101 58.5017 290.061 59.9688 290.061 61.3127C290.061 61.4809 290.061 61.7402 290.061 62.0966C290.058 62.4518 290.058 62.7253 290.061 62.9136C290.741 61.8965 291.636 61.3897 292.74 61.3897C293.779 61.3897 294.606 61.7295 295.212 62.4092C295.821 63.0877 296.125 64.0136 296.125 65.1811C296.125 66.4966 295.787 67.5564 295.106 68.3651C294.428 69.1714 293.538 69.5764 292.436 69.5764C291.555 69.5764 290.733 69.2283 289.965 68.5368C289.677 68.7618 289.381 69.0542 289.079 69.4225H288.763ZM292.388 62.0397C290.761 62.0397 289.947 63.3067 289.947 65.8442C289.947 67.9436 290.71 68.995 292.236 68.995C293.028 68.995 293.64 68.6706 294.073 68.0241C294.509 67.374 294.725 66.4481 294.725 65.2415C294.725 63.1078 293.945 62.0397 292.388 62.0397ZM297.94 58.6391C297.94 58.4046 298.021 58.2057 298.189 58.0435C298.357 57.8813 298.56 57.8007 298.793 57.8007C299.026 57.8007 299.229 57.8813 299.397 58.0435C299.565 58.2057 299.648 58.4046 299.648 58.6391C299.648 58.8723 299.565 59.0748 299.397 59.243C299.229 59.4099 299.026 59.4928 298.793 59.4928C298.56 59.4928 298.357 59.4099 298.189 59.243C298.021 59.0748 297.94 58.8723 297.94 58.6391ZM298.107 69.4225C298.167 67.8986 298.195 66.5167 298.195 65.2841C298.195 64.1474 298.167 62.9029 298.107 61.5436C298.317 61.5898 298.546 61.6123 298.791 61.6123C299.058 61.6123 299.285 61.5898 299.474 61.5436C299.419 62.9136 299.391 64.1581 299.391 65.2841C299.391 66.5167 299.419 67.8986 299.474 69.4225C299.229 69.3656 299.001 69.3396 298.791 69.3396C298.591 69.3396 298.361 69.3656 298.107 69.4225ZM308.251 68.622C307.382 69.2567 306.438 69.5764 305.415 69.5764C304.248 69.5764 303.3 69.1975 302.571 68.4397C301.843 67.6819 301.479 66.7015 301.479 65.4996C301.479 64.2528 301.828 63.2522 302.528 62.5004C303.229 61.7485 304.157 61.3731 305.316 61.3731C306.383 61.3731 307.209 61.6893 307.793 62.318C308.376 62.9479 308.666 63.8478 308.666 65.0213C308.666 65.0532 308.666 65.116 308.666 65.2036C308.658 65.2841 308.652 65.3433 308.652 65.3895H302.913V65.4404C302.913 67.7648 303.847 68.9263 305.715 68.9263C306.671 68.9263 307.528 68.5474 308.285 67.7873C308.263 68.0774 308.251 68.2881 308.251 68.4219V68.622ZM302.913 64.8081H307.337V64.5228C307.337 63.6939 307.149 63.0474 306.774 62.5832C306.398 62.1191 305.885 61.8858 305.233 61.8858C304.596 61.8858 304.058 62.1416 303.618 62.6578C303.183 63.2072 302.947 63.9224 302.913 64.8081ZM310.552 69.4225C310.597 68.7985 310.621 67.8299 310.621 66.5167V65.3327C310.621 63.598 310.597 62.3334 310.552 61.5436C310.763 61.5898 310.99 61.6123 311.235 61.6123C311.492 61.6123 311.707 61.5898 311.885 61.5436C311.885 61.945 311.885 62.228 311.885 62.395C311.885 62.4613 311.885 62.5631 311.885 62.6969C311.881 62.8283 311.881 62.9314 311.885 62.9965C312.513 61.9142 313.379 61.3731 314.48 61.3731C316.246 61.3731 317.128 62.3701 317.128 64.3641C317.128 64.64 317.128 65.0497 317.128 65.5884C317.128 66.1295 317.128 66.5286 317.128 66.7843C317.128 67.6073 317.143 68.4882 317.174 69.4225C316.917 69.3656 316.69 69.3396 316.491 69.3396C316.291 69.3396 316.064 69.3656 315.807 69.4225C315.879 68.2538 315.916 66.679 315.916 64.6968C315.916 63.0509 315.28 62.228 314.008 62.228C313.35 62.228 312.833 62.4672 312.454 62.9456C312.075 63.4239 311.885 64.2919 311.885 65.5482V66.3001C311.885 67.8133 311.901 68.8553 311.935 69.4225C311.679 69.3656 311.445 69.3396 311.235 69.3396C311.036 69.3396 310.808 69.3656 310.552 69.4225ZM318.618 62.2446C318.64 62.0457 318.651 61.9 318.651 61.8112C318.643 61.7769 318.643 61.7319 318.651 61.6774C318.64 61.6087 318.635 61.5661 318.635 61.5436C318.981 61.578 319.329 61.5957 319.676 61.5957V61.0428C319.676 60.6863 319.676 60.2163 319.676 59.6384C320.198 59.5473 320.642 59.4099 321.009 59.2193C320.972 59.9345 320.952 60.3737 320.952 60.5407V61.6466C321.564 61.6466 322.287 61.6123 323.121 61.5436C323.087 61.7153 323.073 61.9024 323.073 62.1072V62.2446C322.473 62.202 321.96 62.1795 321.535 62.1795C321.26 62.1795 321.06 62.1842 320.938 62.196L320.903 63.0308C320.903 63.3553 320.893 63.9449 320.869 64.8022C320.847 65.6595 320.835 66.3604 320.835 66.9075C320.835 67.6535 320.94 68.1922 321.154 68.519C321.365 68.847 321.726 69.0116 322.239 69.0116C322.526 69.0116 322.917 68.892 323.407 68.6528L323.523 69.0234C322.953 69.4023 322.35 69.593 321.704 69.593C320.935 69.593 320.391 69.4106 320.069 69.0495C319.745 68.6872 319.585 68.1058 319.585 67.3065C319.585 67.1384 319.599 66.5511 319.631 65.5434C319.662 64.537 319.676 63.6086 319.676 62.7632V62.196H319.491C319.212 62.196 318.92 62.2138 318.618 62.2446ZM328.613 68.4539C327.902 69.2034 327.076 69.5764 326.131 69.5764C324.596 69.5764 323.83 68.892 323.83 67.5256C323.83 66.3569 324.477 65.637 325.767 65.3575C326.379 65.2356 326.993 65.1124 327.617 64.9905C328.141 64.8792 328.491 64.7454 328.668 64.5914V64.2409C328.668 63.495 328.526 62.9456 328.244 62.5892C327.959 62.2328 327.483 62.0563 326.817 62.0563C325.906 62.0563 325.188 62.4471 324.665 63.2297H324.531L324.565 62.3441C325.308 61.72 326.202 61.4074 327.247 61.4074C328.178 61.4074 328.85 61.6324 329.263 62.0824C329.673 62.5323 329.877 63.2416 329.877 64.2066V64.4067L329.818 67.7245C329.818 68.101 329.847 68.3568 329.903 68.4906C330.003 68.7132 330.219 68.8245 330.552 68.8245C330.675 68.8245 330.772 68.8245 330.837 68.8245L330.902 69.1572C330.302 69.3337 329.847 69.4225 329.533 69.4225C329.02 69.4225 328.713 69.1004 328.613 68.4539ZM328.636 65.2841C327.321 65.5055 326.45 65.7281 326.014 65.9531C325.471 66.229 325.197 66.6825 325.197 67.3065C325.197 68.3627 325.692 68.892 326.683 68.892C327.307 68.892 327.862 68.6481 328.352 68.1579C328.54 67.9672 328.636 67.7281 328.636 67.4403V65.2841Z" fill="#474747"/>
</svg>
